<svg width="44" height="39" viewBox="0 0 44 39" fill="none" xmlns="http://www.w3.org/2000/svg">
<path d="M1.46352 38.1753C19.7598 38.1563 34.5761 23.3066 34.5618 5.01028L41.5457 11.9942C42.1273 12.5185 43.0188 12.4947 43.5718 11.9417C44.1247 11.3887 44.1438 10.4973 43.6194 9.91567L34.1328 0.429044C33.8563 0.152549 33.4845 0 33.0936 0C32.7027 0 32.3308 0.152549 32.0543 0.429044L22.5677 9.91567C21.9956 10.4877 21.9956 11.4221 22.5677 11.9942C23.1397 12.5662 24.0693 12.5662 24.6462 11.9942L31.63 5.01028C31.6443 21.6858 18.1438 35.2149 1.46828 35.234C0.657867 35.234 0 35.8919 0 36.7023C0 37.5127 0.657867 38.1706 1.46828 38.1706L1.46352 38.1753Z" fill="#6C5FA4"/>
</svg>
