<svg width="1034" height="691" viewBox="0 0 1034 691" fill="none" xmlns="http://www.w3.org/2000/svg">
<path fill-rule="evenodd" clip-rule="evenodd" d="M1851 405.311C1737.03 521.181 1644.65 662.815 1520.76 769.845C1399.5 874.602 1233 913.711 1070.61 965.425C911.862 1015.98 780.793 1112.78 665.146 1224.55C548.445 1337.34 432.663 1448.66 291.138 1525.5C242.73 1458.09 194.322 1390.69 145.913 1323.28C97.5045 1255.87 49.0964 1188.46 0.638794 1120.98C221.052 1153.66 401.246 1127.41 518.301 1018.1C639.121 905.262 703.146 735.696 780.628 560.639C853.665 395.623 974.755 280.237 1115.17 202.762C1256.68 124.69 1409.48 64.7458 1560.5 0.792358C1608.96 68.2693 1657.37 135.677 1705.77 203.086C1754.18 270.495 1802.59 337.903 1851 405.311Z" fill="#5A4E8B"/>
</svg>
