<svg width="1239" height="732" viewBox="0 0 1239 732" fill="none" xmlns="http://www.w3.org/2000/svg">
<path fill-rule="evenodd" clip-rule="evenodd" d="M1949.57 368.552C1816.45 461.795 1699.89 584.296 1558.61 667.045C1420.34 748.037 1249.51 756.256 1080.43 777.615C915.14 798.495 768.668 869.884 634.645 958.79C499.401 1048.51 365.327 1136.95 212.198 1186.81C176.838 1111.73 141.477 1036.65 106.118 961.571C70.7572 886.491 35.3967 811.413 0.00109863 736.257C210.814 808.422 392.778 815.337 527.741 729.099C667.044 640.086 760.801 484.968 868.788 326.895C970.581 177.887 1110.61 86.4151 1262.77 35.7309C1416.1 -15.343 1577.25 -46.5378 1737.37 -81.9983C1772.77 -6.84253 1808.13 68.2359 1843.49 143.315C1878.85 218.395 1914.21 293.473 1949.57 368.553V368.552Z" fill="#6C5FA4"/>
</svg>
