<svg width="25" height="25" viewBox="0 0 25 25" fill="none" xmlns="http://www.w3.org/2000/svg">
<path fill-rule="evenodd" clip-rule="evenodd" d="M5.73279 0H19.8124C22.6787 0 25.0007 2.32199 25.0007 5.18824V19.2679C25.0007 22.1341 22.6787 24.4561 19.8124 24.4561H5.73279C2.86654 24.4561 0.544556 22.1341 0.544556 19.2679V5.18824C0.544556 2.32472 2.86654 0 5.73279 0V0ZM15.9917 6.62956H5.13383V18.7017H8.15598V14.7743H13.9486L16.5906 18.7017H19.9738L17.061 14.7552C17.9663 14.6102 18.6172 14.2656 19.0165 13.7241C19.4158 13.1798 19.6128 12.3128 19.6128 11.1532V10.2479C19.6128 9.56145 19.5417 9.01719 19.4131 8.60148C19.2873 8.18576 19.0685 7.82201 18.7622 7.49655C18.4367 7.1875 18.0757 6.97144 17.6409 6.82648C17.206 6.70067 16.6645 6.62683 15.9944 6.62683L15.9917 6.62956ZM15.5021 12.1132H8.15324V9.29069H15.5021C15.9178 9.29069 16.2077 9.3618 16.3527 9.49034C16.4976 9.61615 16.5879 9.85136 16.5879 10.196V11.2106C16.5879 11.5717 16.4976 11.8069 16.3527 11.9354C16.2077 12.0612 15.9178 12.1159 15.5021 12.1159V12.1132Z" fill="#0B1D38"/>
<path d="M20.5809 6.79913C21.4343 6.79913 22.1262 6.1073 22.1262 5.25388C22.1262 4.40045 21.4343 3.70862 20.5809 3.70862C19.7275 3.70862 19.0356 4.40045 19.0356 5.25388C19.0356 6.1073 19.7275 6.79913 20.5809 6.79913Z" fill="#F41240"/>
</svg>
