<svg width="193" height="61" viewBox="0 0 193 61" fill="none" xmlns="http://www.w3.org/2000/svg">
<path d="M21.0549 36.1079C20.6731 35.5377 20.3421 34.9281 20.0701 34.2889C20.3355 34.9133 20.6649 35.5196 21.0549 36.1079Z" fill="#2B2A29"/>
<path d="M23.8818 38.9987C23.7228 38.8856 23.5655 38.7693 23.4131 38.6464C23.5688 38.766 23.7244 38.8872 23.8818 38.9987Z" fill="#2B2A29"/>
<path d="M24.7569 39.5559C24.6307 39.4838 24.5078 39.4067 24.3849 39.3297C24.5078 39.4067 24.6323 39.4838 24.7569 39.5559Z" fill="#2B2A29"/>
<path d="M20.0455 34.225C19.9259 33.9399 19.8194 33.6466 19.726 33.35C19.8194 33.6449 19.9259 33.9366 20.0455 34.225Z" fill="#2B2A29"/>
<path d="M19.6538 33.1074C19.5899 32.8895 19.5358 32.6682 19.4834 32.4454C19.5326 32.6682 19.5899 32.8895 19.6538 33.1074Z" fill="#2B2A29"/>
<path d="M26.7955 40.4621C26.5431 40.3801 26.294 40.29 26.0498 40.19C26.2956 40.2916 26.5447 40.3818 26.7955 40.4621Z" fill="#2B2A29"/>
<path d="M25.7565 40.0622C25.5648 39.9786 25.3796 39.8852 25.1944 39.7918C25.3796 39.8885 25.568 39.9786 25.7565 40.0622Z" fill="#2B2A29"/>
<path d="M28.4653 40.8587C28.3342 40.839 28.2031 40.8226 28.0737 40.798C28.2031 40.8226 28.3342 40.839 28.4653 40.8587Z" fill="#2B2A29"/>
<path d="M27.7607 40.7259C27.5067 40.6686 27.2543 40.6063 27.0069 40.5325C27.256 40.6063 27.5067 40.6702 27.7607 40.7259Z" fill="#2B2A29"/>
<path d="M52.8612 30.3134C52.8612 33.9776 51.9435 37.5468 50.1049 41.011C49.6673 41.8501 49.0118 42.8546 48.14 44.0198C47.7943 44.513 47.0126 45.3783 45.7934 46.6188C44.8298 47.5136 44.0022 48.2051 43.309 48.6984C39.2515 51.5252 34.8417 52.9394 30.0746 52.9394C27.3461 52.9394 24.6454 52.438 21.971 51.4351C17.1859 49.5554 13.4398 46.4549 10.7293 42.1319C8.43833 38.3563 7.29121 34.4168 7.29121 30.3117V29.902C7.29121 26.2542 8.22038 22.6883 10.0754 19.2044C10.5113 18.367 11.1668 17.3624 12.0403 16.194C12.3664 15.7024 13.1399 14.8355 14.3591 13.595C15.3407 12.7002 16.1781 12.0185 16.8696 11.5433C20.9255 8.69842 25.3288 7.27599 30.0762 7.27599C32.8227 7.27599 35.525 7.77745 38.1814 8.78035C42.9665 10.678 46.7225 13.7785 49.451 18.0835C51.7239 21.8591 52.8612 25.7986 52.8612 29.9037V30.3134ZM49.7755 14.2865C49.3379 13.6851 48.5546 12.8346 47.4272 11.7399C46.2965 10.6813 45.3525 9.88814 44.5872 9.35883C40.1086 6.31078 35.2661 4.78675 30.0615 4.78675C25.4566 4.78675 21.1238 5.99122 17.0646 8.40181C15.9913 9.03928 14.9359 9.79637 13.8986 10.6731C13.6069 10.837 12.8056 11.6039 11.4946 12.9722C10.5294 14.0505 9.71163 15.0813 9.03811 16.0662C8.23676 17.3083 7.59929 18.4653 7.12734 19.5419C5.58037 22.9735 4.80688 26.3951 4.80688 29.807V30.4101C4.80688 33.3106 5.38044 36.2603 6.52592 39.2527C7.01754 40.585 7.68123 41.9435 8.52026 43.3315C9.02827 44.1525 9.62969 45.0014 10.3229 45.8781C10.7784 46.4975 11.57 47.3661 12.699 48.4771C13.8462 49.5194 14.8015 50.3027 15.5668 50.832C20.0258 53.8964 24.8601 55.4303 30.0648 55.4303C34.1616 55.4303 38.0651 54.4634 41.7784 52.5281C46.8208 49.8258 50.5703 45.8765 53.0284 40.6751C54.577 37.2239 55.3488 33.8039 55.3488 30.4101V29.807C55.3488 27.4177 54.949 24.9252 54.1493 22.336C53.5659 20.6743 52.9645 19.2617 52.3467 18.0933C51.6731 16.8511 50.8177 15.5844 49.7804 14.2882L49.7755 14.2865Z" fill="#2B2A29"/>
<path d="M21.1435 36.2358C21.2647 36.4128 21.3844 36.5914 21.5171 36.7651C21.681 37.0388 22.1628 37.55 22.9641 38.2973C23.028 38.3514 23.0952 38.3973 23.1591 38.4497C22.3905 37.8073 21.7137 37.0617 21.1435 36.2358Z" fill="#2B2A29"/>
<path d="M48.027 30.3822C48.027 33.2434 47.2813 36.0768 45.7901 38.8823C45.4066 39.5591 44.8511 40.3605 44.1251 41.288C43.504 42.127 42.6142 43.048 41.4491 44.0493C38.0454 46.7466 34.2583 48.097 30.091 48.097C25.8679 48.097 22.0546 46.7286 18.6493 43.9952C17.9938 43.4659 17.2121 42.7006 16.3026 41.6993C15.4652 40.6423 14.7999 39.6657 14.3083 38.7742C12.8351 35.9867 12.096 33.1877 12.096 30.3822V29.807C12.096 27.9487 12.4418 25.9986 13.1349 23.9583C13.6806 22.572 14.2444 21.4445 14.8278 20.5678C15.2096 19.8763 15.9372 18.9291 17.0122 17.7246C17.9577 16.7954 18.705 16.1301 19.2507 15.7286C22.5462 13.3066 26.1498 12.0922 30.0631 12.0922C34.2681 12.0922 38.0716 13.4606 41.4753 16.194C42.1472 16.7217 42.9124 17.4689 43.7695 18.4358C44.6413 19.5108 45.3345 20.5055 45.8442 21.4167C47.2994 24.2058 48.027 27.0031 48.027 29.8086V30.3838V30.3822ZM47.183 18.9373C46.7094 18.0982 45.854 17.0216 44.6167 15.7089C43.7433 14.8502 42.9698 14.1751 42.2979 13.6818C38.5682 10.9632 34.4943 9.603 30.0746 9.603C25.7631 9.603 21.8252 10.8632 18.2593 13.3803C17.6595 13.7293 16.7418 14.5143 15.5046 15.7352C14.6311 16.6299 13.9396 17.4427 13.4316 18.172C10.8833 21.8411 9.61002 25.82 9.61002 30.1085C9.61002 34.1792 10.7653 37.9843 13.0759 41.5256C13.6036 42.3286 14.4115 43.3151 15.5046 44.4819C16.3764 45.3406 17.1498 46.0158 17.8234 46.5074C21.5515 49.226 25.627 50.5862 30.0451 50.5862C34.3205 50.5862 38.2584 49.3358 41.8604 46.8351C42.4782 46.4336 43.3615 45.6864 44.5069 44.5901C45.2345 43.8428 45.8261 43.1676 46.2801 42.5629C49.1003 38.7496 50.5096 34.5872 50.5096 30.079C50.5096 27.4521 49.9902 24.8416 48.9545 22.2508C48.4268 21.0283 47.8352 19.9238 47.1814 18.9373H47.183Z" fill="#2B2A29"/>
<path d="M41.5048 36.6405C41.177 37.296 40.5412 38.1629 39.5956 39.2379C38.7779 40.0213 38.1404 40.5686 37.6865 40.8767C35.3218 42.481 32.8588 43.2823 30.2942 43.2823H29.8845C28.249 43.2823 26.5742 42.9284 24.865 42.2172C24.1194 41.9074 23.3377 41.4617 22.52 40.8767C22.0841 40.603 21.4024 40.0114 20.4748 39.1003C18.0921 36.4586 16.9024 33.4516 16.9024 30.0807C16.9024 28.5861 17.1744 27.0752 17.7201 25.543C18.8295 22.7014 20.6125 20.5055 23.0673 18.9553C25.2862 17.5902 27.5575 16.9069 29.8861 16.9069H30.2958C31.9132 16.9069 33.5405 17.2526 35.1776 17.9442C35.9036 18.2178 36.7688 18.7013 37.7684 19.3928C38.2043 19.6665 38.868 20.24 39.7595 21.1151C42.0881 23.7748 43.2516 26.7721 43.2516 30.1069C43.2516 32.4028 42.6699 34.5806 41.5064 36.6389L41.5048 36.6405ZM41.177 19.0733C40.356 18.2883 39.6563 17.6853 39.0745 17.2657C36.2887 15.3681 33.3488 14.4193 30.2548 14.4193H29.8992C26.8954 14.4193 24.0293 15.314 21.2991 17.1019C20.7338 17.4853 20.152 17.9425 19.5522 18.4718C18.6608 19.3486 18.0593 20.0057 17.7496 20.4433C15.5291 23.3651 14.4181 26.577 14.4181 30.0823C14.4181 33.2959 15.3276 36.2538 17.1498 38.9544C17.4596 39.4641 18.1331 40.2687 19.1704 41.3634C20.2077 42.2942 21.0353 42.953 21.6547 43.3381C24.2931 44.962 27.0249 45.7732 29.8451 45.7732H30.3105C32.477 45.7732 34.6778 45.2537 36.9179 44.2131C37.8635 43.7559 38.8647 43.1185 39.9201 42.2958C40.4314 41.914 41.1508 41.2011 42.0767 40.1605C44.5168 37.1485 45.736 33.7973 45.736 30.1118C45.736 27.1178 44.9166 24.3074 43.2779 21.6772C42.7862 20.8923 42.0849 20.0254 41.177 19.0765V19.0733Z" fill="#2B2A29"/>
<path d="M57.6645 30.2036C57.6645 35.0739 56.401 39.7066 53.8708 44.1017C53.3415 44.9948 52.6139 46.0534 51.6864 47.2759C50.4115 48.8639 48.9907 50.2961 47.4273 51.5711C46.1884 52.556 45.0692 53.3409 44.0695 53.9243C39.6269 56.4594 35.0401 57.7262 30.3091 57.7262H29.8437C26.712 57.7262 23.546 57.1428 20.3406 55.976C18.5216 55.2648 16.9189 54.47 15.5358 53.5966C14.8623 53.1951 14.061 52.6281 13.1335 51.8988C12.478 51.4613 11.4767 50.5583 10.1296 49.19C8.80227 47.7495 7.79117 46.491 7.09798 45.4143C4.02207 40.6718 2.4833 35.6016 2.4833 30.2019V30.0118C2.4833 25.1595 3.7484 20.5268 6.27861 16.1121C6.80793 15.237 7.53553 14.1784 8.46305 12.9395C9.73635 11.3712 11.1489 9.93894 12.6959 8.64434C13.9512 7.65782 15.0786 6.87451 16.0799 6.29111C20.5029 3.75435 25.0913 2.48597 29.842 2.48597H30.3074C33.4374 2.48597 36.5953 3.07099 39.781 4.23778C41.6016 4.96701 43.2026 5.77 44.5874 6.64508C45.2773 7.02691 46.0786 7.58572 46.9898 8.31496C47.6617 8.77052 48.6629 9.67347 49.9919 11.0222C51.339 12.4626 52.3583 13.7228 53.0498 14.7978C56.1257 19.5387 57.6629 24.6089 57.6629 30.0102V30.2003L57.6645 30.2036ZM57.009 16.743C56.6272 15.9416 56.0897 14.9912 55.3981 13.8981C54.7984 12.9493 53.9331 11.7924 52.8057 10.424C52.0781 9.58662 51.2669 8.74758 50.3754 7.90691C49.284 6.904 48.2008 6.0453 47.1274 5.33573C45.5084 4.22303 43.9597 3.33647 42.4849 2.68098C38.4798 0.894751 34.4026 0 30.2533 0H29.8977C24.7095 0 19.7408 1.35851 14.9901 4.07554C13.7889 4.75234 12.5615 5.59957 11.3046 6.62214C10.7032 7.04166 9.71177 7.93477 8.32704 9.30311C7.30774 10.4338 6.46215 11.4466 5.78863 12.3397C4.75131 13.7982 3.91392 15.1583 3.27809 16.4152C1.09365 20.7923 0.000610352 25.289 0.000610352 29.9053V30.3429C0.000610352 34.4463 0.892084 38.5136 2.67667 42.5449C3.58781 44.5524 4.73492 46.4664 6.11638 48.2903C6.58997 48.9851 7.52733 50.0602 8.92845 51.5186C10.1133 52.6297 11.0949 53.4868 11.8782 54.0898C13.4251 55.2205 14.8541 56.1333 16.1651 56.8265C20.6045 59.0896 25.1651 60.2203 29.8437 60.2203H30.3091C33.7291 60.2203 37.1344 59.5894 40.52 58.3309C42.4128 57.6557 44.2875 56.7347 46.1442 55.568C46.9095 55.0944 47.7911 54.4651 48.794 53.6818C49.4856 53.1721 50.4852 52.2495 51.7962 50.9172C52.8352 49.7849 53.6807 48.7738 54.3346 47.8806C55.3916 46.4222 56.2372 45.062 56.8746 43.8051C59.0591 39.4264 60.1521 34.9412 60.1521 30.3445V29.907C60.1521 25.4381 59.1033 21.0512 57.0107 16.7463L57.009 16.743Z" fill="#2B2A29"/>
<path d="M19.3884 31.9816C19.3687 31.8849 19.3572 31.785 19.3425 31.6866C19.3572 31.785 19.3703 31.8849 19.3884 31.9816Z" fill="#2B2A29"/>
<path d="M26.0498 40.19C25.9515 40.1491 25.8532 40.1065 25.7549 40.0622C25.8532 40.1065 25.9515 40.1491 26.0498 40.19Z" fill="#E95329"/>
<path d="M30.2024 18.9553C24.1243 18.9553 19.1983 23.8912 19.1983 29.9823C19.1983 30.5641 19.2556 31.1311 19.3425 31.6883C19.2655 31.1639 19.2212 30.6296 19.2212 30.0823C19.2212 27.2162 20.2684 24.6777 22.3627 22.4687C24.5832 20.3138 27.1593 19.2355 30.091 19.2355C32.6933 19.2355 35.0596 20.1221 37.1883 21.8935C37.9897 22.6605 38.4633 23.1718 38.6075 23.4274C40.1544 25.4365 40.9279 27.6635 40.9279 30.1134C40.9279 32.9812 39.8808 35.5278 37.7881 37.7549C35.566 39.9115 32.9915 40.9897 30.0615 40.9897C29.5174 40.9897 28.9865 40.9422 28.4653 40.8619C29.0323 40.9537 29.6092 41.0127 30.2024 41.0127C36.2788 41.0127 41.2065 36.0752 41.2065 29.9856C41.2065 23.8944 36.2805 18.9586 30.2024 18.9586V18.9553Z" fill="#E95329"/>
<path d="M27.0052 40.5325C26.9348 40.5112 26.8643 40.4867 26.7938 40.4637C26.8643 40.4867 26.9348 40.5112 27.0052 40.5325Z" fill="#E95329"/>
<path d="M28.0737 40.798C27.9672 40.7783 27.8656 40.7505 27.759 40.7259C27.8639 40.7505 27.9672 40.7767 28.0737 40.798Z" fill="#E95329"/>
<path d="M25.1944 39.7918C25.0486 39.7164 24.9011 39.6394 24.7569 39.5558C24.9011 39.6378 25.0469 39.7164 25.1944 39.7918Z" fill="#E95329"/>
<path d="M23.4115 38.648C23.3263 38.5824 23.241 38.5185 23.1575 38.4513C23.2394 38.5185 23.3279 38.5824 23.4115 38.648Z" fill="#E95329"/>
<path d="M21.1418 36.2341C21.114 36.1932 21.0812 36.1506 21.055 36.1096C21.0828 36.1522 21.114 36.1932 21.1418 36.2341Z" fill="#E95329"/>
<path d="M19.4834 32.4454C19.449 32.2913 19.4146 32.1389 19.3867 31.9816C19.4162 32.1373 19.4474 32.293 19.4834 32.4454Z" fill="#E95329"/>
<path d="M20.0684 34.2873C20.0602 34.2676 20.052 34.2463 20.0439 34.2267C20.052 34.2463 20.0602 34.2676 20.0684 34.2873Z" fill="#E95329"/>
<path d="M19.7243 33.3499C19.6997 33.2697 19.6768 33.1894 19.6522 33.1091C19.6768 33.1894 19.6981 33.2697 19.7243 33.3499Z" fill="#E95329"/>
<path d="M24.3849 39.3297C24.2161 39.2232 24.0473 39.115 23.8818 38.9987C24.0456 39.1134 24.2144 39.2215 24.3849 39.3297Z" fill="#E95329"/>
<path d="M36.1281 35.8998C37.6734 34.207 38.4453 32.2667 38.4453 30.0807C38.4453 27.8045 37.5915 25.8019 35.8839 24.0714C34.1927 22.5048 32.2574 21.7231 30.0762 21.7231C27.7869 21.7231 25.7778 22.5785 24.0522 24.291C22.4889 25.9855 21.7072 27.9225 21.7072 30.1085C21.7072 32.3847 22.5708 34.3971 24.2964 36.144C25.9859 37.7106 27.9131 38.4923 30.0746 38.4923C32.3655 38.4923 34.3828 37.6271 36.1264 35.8982L36.1281 35.8998Z" fill="#E95329"/>
<path d="M21.7072 30.1085C21.7072 27.9241 22.4889 25.9855 24.0522 24.291C25.7778 22.5802 27.7869 21.7231 30.0762 21.7231C32.2574 21.7231 34.1927 22.5064 35.8839 24.0714C37.5915 25.8019 38.4453 27.8045 38.4453 30.0807C38.4453 32.2651 37.6734 34.2054 36.1281 35.8982C34.3828 37.6271 32.3655 38.4923 30.0762 38.4923C27.9131 38.4923 25.9876 37.7106 24.298 36.144C22.5708 34.3955 21.7088 32.3847 21.7088 30.1069L21.7072 30.1085ZM37.7898 37.75C39.8824 35.5246 40.9296 32.9763 40.9296 30.1085C40.9296 27.6603 40.1561 25.4332 38.6091 23.4241C38.4649 23.1685 37.9897 22.6572 37.19 21.8919C35.0596 20.1204 32.6933 19.2339 30.091 19.2339C27.1593 19.2339 24.5832 20.3122 22.3627 22.4687C20.27 24.6778 19.2212 27.2162 19.2212 30.0839C19.2212 30.6296 19.2655 31.1655 19.3425 31.6899C19.3572 31.7882 19.3703 31.8882 19.3884 31.9865C19.4146 32.1422 19.4506 32.2962 19.4834 32.4486C19.5342 32.6715 19.5883 32.8944 19.6538 33.1123C19.6768 33.1926 19.6997 33.2746 19.726 33.3532C19.821 33.6498 19.9275 33.9432 20.0455 34.2283C20.0537 34.2496 20.0603 34.2709 20.0701 34.2906C20.3421 34.9313 20.6731 35.5393 21.055 36.1129C21.0828 36.1555 21.114 36.1964 21.1435 36.239C21.7137 37.065 22.3905 37.8122 23.1591 38.453C23.2427 38.5218 23.3279 38.5857 23.4131 38.6513C23.5672 38.7725 23.7228 38.8905 23.8818 39.002C24.0473 39.1183 24.2161 39.2265 24.3849 39.333C24.5078 39.41 24.6307 39.487 24.7569 39.5591C24.9011 39.6427 25.0486 39.7197 25.1944 39.7951C25.3796 39.8902 25.5648 39.9819 25.7565 40.0671C25.8548 40.1114 25.9532 40.154 26.0515 40.195C26.2957 40.2949 26.5447 40.3851 26.7955 40.4686C26.8659 40.4916 26.938 40.5162 27.0085 40.5391C27.256 40.6145 27.5067 40.6751 27.7607 40.7325C27.8672 40.7554 27.9688 40.7849 28.0753 40.8046C28.2031 40.8292 28.3375 40.8439 28.467 40.8652C28.9897 40.9439 29.5207 40.9914 30.0648 40.9914C32.9948 40.9914 35.5709 39.9147 37.793 37.7565L37.7898 37.75Z" fill="#E95329"/>
<path d="M67.6705 57.8917V51.186H70.1843C70.6956 51.186 71.1053 51.2548 71.4133 51.3908C71.7247 51.5252 71.9656 51.7333 72.1393 52.0168C72.3163 52.297 72.4048 52.592 72.4048 52.9001C72.4048 53.1869 72.3261 53.4573 72.1721 53.7096C72.0164 53.9636 71.7821 54.1668 71.4691 54.3225C71.8738 54.4421 72.1852 54.6437 72.4015 54.9305C72.6211 55.2173 72.7309 55.5565 72.7309 55.9449C72.7309 56.2595 72.6637 56.5512 72.5293 56.8232C72.3982 57.092 72.236 57.2985 72.041 57.4443C71.846 57.5902 71.6002 57.7016 71.3052 57.7786C71.0135 57.8524 70.653 57.8884 70.2269 57.8884H67.6721L67.6705 57.8917ZM68.557 54.003H70.0057C70.399 54.003 70.6808 53.9767 70.8513 53.9243C71.0774 53.8571 71.2462 53.7457 71.3576 53.59C71.474 53.4343 71.5313 53.2393 71.5313 53.005C71.5313 52.7821 71.4789 52.5871 71.3707 52.4199C71.2642 52.2495 71.1118 52.1332 70.9135 52.0725C70.7152 52.0086 70.376 51.9758 69.8942 51.9758H68.5554V54.003H68.557ZM68.557 57.1002H70.2253C70.512 57.1002 70.712 57.0903 70.8283 57.0674C71.0332 57.0313 71.2036 56.9691 71.3412 56.8839C71.4773 56.7986 71.5903 56.6757 71.6788 56.5135C71.7673 56.3496 71.8116 56.1595 71.8116 55.9465C71.8116 55.6974 71.7477 55.4795 71.6198 55.2976C71.492 55.1108 71.3134 54.9813 71.084 54.9092C70.8595 54.8338 70.5333 54.7945 70.1073 54.7945H68.5587V57.1002H68.557Z" fill="#2B2A29"/>
<path d="M77.0097 57.2919C76.7049 57.5508 76.4115 57.7344 76.128 57.8409C75.8478 57.9474 75.5463 58.0015 75.2235 58.0015C74.6909 58.0015 74.2812 57.872 73.9944 57.6131C73.7076 57.3509 73.5651 57.0166 73.5651 56.6118C73.5651 56.3742 73.6191 56.1579 73.7257 55.9629C73.8355 55.7646 73.9764 55.6073 74.1501 55.4877C74.3271 55.3697 74.5254 55.2795 74.7433 55.2173C74.9056 55.1747 75.1481 55.1337 75.4742 55.0944C76.1379 55.0157 76.6279 54.9207 76.9409 54.8109C76.9441 54.6978 76.9458 54.6257 76.9458 54.5962C76.9458 54.2602 76.8671 54.0243 76.7131 53.8866C76.5033 53.7014 76.1903 53.608 75.7757 53.608C75.389 53.608 75.1022 53.6769 74.917 53.8145C74.7335 53.9489 74.5991 54.1881 74.5106 54.5323L73.706 54.4225C73.7797 54.0783 73.8994 53.8014 74.0665 53.59C74.2337 53.377 74.4762 53.2131 74.7925 53.1C75.1104 52.9837 75.4758 52.9263 75.8937 52.9263C76.3083 52.9263 76.6443 52.9755 76.9032 53.0738C77.1621 53.1705 77.3522 53.295 77.4751 53.4442C77.5964 53.59 77.6816 53.7768 77.7307 54.003C77.7586 54.1439 77.7717 54.3963 77.7717 54.7617V55.8597C77.7717 56.6249 77.7881 57.11 77.8225 57.3132C77.8586 57.5148 77.929 57.7082 78.0323 57.895H77.1736C77.0883 57.7245 77.0326 57.5246 77.0097 57.2952V57.2919ZM76.9409 55.4533C76.6426 55.5745 76.1952 55.6794 75.5971 55.7646C75.2595 55.8138 75.0203 55.8678 74.8793 55.9301C74.7384 55.9908 74.6302 56.0809 74.5549 56.2005C74.4795 56.3169 74.4401 56.4463 74.4401 56.5889C74.4401 56.8085 74.5221 56.992 74.6876 57.1379C74.8548 57.2837 75.0989 57.3575 75.4185 57.3575C75.7348 57.3575 76.0166 57.2886 76.2641 57.151C76.5115 57.01 76.6918 56.82 76.8081 56.5791C76.8966 56.3939 76.9409 56.1186 76.9409 55.7564V55.4549V55.4533Z" fill="#2B2A29"/>
<path d="M79.0794 53.0328H79.9021V57.21H81.7751V53.0328H82.5978V57.21H84.4758V53.0328H85.2935V57.8917H79.0794V53.0328Z" fill="#2B2A29"/>
<path d="M89.174 53.0328H93.0021V57.8917H92.1795V53.7145H89.9967V57.8917H89.174V53.0328Z" fill="#2B2A29"/>
<path d="M94.241 59.7533V53.0345H94.9899V53.6654C95.1669 53.4179 95.3651 53.2344 95.588 53.1115C95.8109 52.9869 96.0813 52.923 96.3975 52.923C96.8121 52.923 97.1776 53.0295 97.4939 53.2426C97.8118 53.4556 98.0494 53.7588 98.2116 54.1488C98.3722 54.5355 98.4542 54.9616 98.4542 55.4254C98.4542 55.9219 98.364 56.3709 98.1838 56.7692C98.0068 57.1657 97.7495 57.4705 97.407 57.6836C97.0694 57.895 96.7138 57.9998 96.3385 57.9998C96.0649 57.9998 95.8174 57.9425 95.5978 57.8261C95.3815 57.7098 95.2029 57.5639 95.0636 57.387V59.7517H94.241V59.7533ZM94.9866 55.4893C94.9866 56.1153 95.1128 56.5758 95.3651 56.8757C95.6175 57.1756 95.9239 57.3247 96.2828 57.3247C96.6483 57.3247 96.9613 57.1706 97.2202 56.8626C97.4824 56.5512 97.6135 56.071 97.6135 55.4221C97.6135 54.8027 97.4857 54.3389 97.23 54.0308C96.9777 53.7227 96.6729 53.5687 96.3205 53.5687C95.9698 53.5687 95.6601 53.7342 95.3881 54.0636C95.1193 54.3897 94.9866 54.8666 94.9866 55.4909V55.4893Z" fill="#2B2A29"/>
<path d="M99.1441 55.4614C99.1441 54.5618 99.3948 53.8948 99.893 53.4622C100.311 53.1017 100.819 52.9214 101.42 52.9214C102.087 52.9214 102.631 53.141 103.056 53.5802C103.48 54.0161 103.69 54.6208 103.69 55.3926C103.69 56.017 103.595 56.5102 103.406 56.8691C103.22 57.2264 102.949 57.5033 102.589 57.7016C102.233 57.8999 101.843 57.9982 101.42 57.9982C100.74 57.9982 100.19 57.7803 99.7701 57.3443C99.3539 56.9084 99.1441 56.2808 99.1441 55.4598V55.4614ZM99.9897 55.4614C99.9897 56.0842 100.124 56.5496 100.396 56.8609C100.668 57.169 101.009 57.323 101.42 57.323C101.828 57.323 102.168 57.1674 102.438 56.856C102.71 56.5446 102.844 56.071 102.844 55.4336C102.844 54.8338 102.707 54.3782 102.433 54.0702C102.163 53.7588 101.825 53.6031 101.419 53.6031C101.007 53.6031 100.666 53.7572 100.394 54.0652C100.122 54.3733 99.9881 54.8387 99.9881 55.4598L99.9897 55.4614Z" fill="#2B2A29"/>
<path d="M104.663 53.0328H106.559C107.025 53.0328 107.371 53.0722 107.597 53.1508C107.824 53.2262 108.021 53.3688 108.182 53.5769C108.347 53.785 108.429 54.0325 108.429 54.3225C108.429 54.5552 108.38 54.7568 108.283 54.9305C108.188 55.1009 108.046 55.2435 107.854 55.3598C108.082 55.4352 108.272 55.5794 108.421 55.7892C108.573 55.9973 108.65 56.2431 108.65 56.5299C108.619 56.9904 108.455 57.3329 108.157 57.5541C107.857 57.777 107.425 57.8884 106.854 57.8884H104.667V53.0296L104.663 53.0328ZM105.486 55.078H106.364C106.715 55.078 106.954 55.06 107.085 55.0223C107.215 54.9862 107.333 54.9125 107.436 54.8027C107.539 54.6896 107.592 54.5552 107.592 54.3995C107.592 54.1439 107.502 53.9653 107.318 53.8637C107.138 53.7637 106.83 53.7129 106.391 53.7129H105.486V55.0763V55.078ZM105.486 57.2133H106.569C107.036 57.2133 107.354 57.1608 107.528 57.0527C107.702 56.9429 107.792 56.756 107.802 56.4889C107.802 56.3332 107.751 56.1907 107.651 56.0596C107.551 55.9252 107.42 55.8416 107.259 55.8089C107.097 55.7728 106.838 55.7531 106.482 55.7531H105.486V57.2133Z" fill="#2B2A29"/>
<path d="M109.214 55.4614C109.214 54.5618 109.465 53.8948 109.963 53.4622C110.381 53.1017 110.889 52.9214 111.49 52.9214C112.156 52.9214 112.701 53.141 113.126 53.5802C113.549 54.0161 113.76 54.6208 113.76 55.3926C113.76 56.017 113.665 56.5102 113.476 56.8691C113.291 57.2264 113.018 57.5033 112.659 57.7016C112.301 57.8999 111.911 57.9982 111.49 57.9982C110.81 57.9982 110.261 57.7803 109.84 57.3443C109.422 56.9084 109.214 56.2808 109.214 55.4598V55.4614ZM110.06 55.4614C110.06 56.0842 110.196 56.5496 110.466 56.8609C110.738 57.169 111.077 57.323 111.49 57.323C111.898 57.323 112.238 57.1674 112.508 56.856C112.78 56.5446 112.916 56.071 112.916 55.4336C112.916 54.8338 112.778 54.3782 112.505 54.0702C112.234 53.7588 111.897 53.6031 111.492 53.6031C111.079 53.6031 110.74 53.7572 110.468 54.0652C110.197 54.3733 110.061 54.8387 110.061 55.4598L110.06 55.4614Z" fill="#2B2A29"/>
<path d="M115.168 53.0328H118.55V57.2133H119.074V59.2666H118.398V57.89H114.578V59.2666H113.901V57.2133H114.335C114.914 56.4267 115.192 55.0321 115.166 53.0328H115.168ZM115.853 53.7145C115.792 55.291 115.548 56.4578 115.12 57.2133H117.729V53.7145H115.851H115.853Z" fill="#2B2A29"/>
<path d="M119.987 53.0328H120.811V55.055H123.091V53.0328H123.914V57.8917H123.091V55.7367H120.811V57.8917H119.987V53.0328Z" fill="#2B2A29"/>
<path d="M125.156 53.0328H125.978V56.738L128.258 53.0328H129.144V57.8917H128.322V54.2078L126.042 57.8917H125.156V53.0328Z" fill="#2B2A29"/>
<path d="M130.378 53.0328H131.203V55.1321C131.465 55.1321 131.647 55.0813 131.752 54.9813C131.858 54.8813 132.014 54.588 132.217 54.1029C132.378 53.7195 132.51 53.4655 132.609 53.3442C132.71 53.2213 132.825 53.1393 132.956 53.0967C133.087 53.0541 133.297 53.0328 133.585 53.0328H133.751V53.7145L133.522 53.7096C133.305 53.7096 133.166 53.7424 133.105 53.8063C133.041 53.8735 132.945 54.0734 132.814 54.4061C132.689 54.7224 132.574 54.942 132.471 55.0649C132.368 55.1861 132.207 55.2976 131.993 55.3975C132.345 55.4926 132.692 55.822 133.035 56.3857L133.933 57.8901H133.03L132.152 56.3857C131.971 56.0842 131.816 55.8859 131.68 55.7908C131.545 55.6941 131.386 55.645 131.201 55.645V57.8917H130.377V53.0328H130.378Z" fill="#2B2A29"/>
<path d="M136.638 53.0328H140.581V53.7145H139.02V57.8917H138.2V53.7145H136.638V53.0328Z" fill="#2B2A29"/>
<path d="M144.58 56.3267L145.429 56.4316C145.296 56.9281 145.047 57.3149 144.685 57.5885C144.321 57.8622 143.859 57.9998 143.295 57.9998C142.584 57.9998 142.022 57.7819 141.604 57.346C141.191 56.9068 140.983 56.2923 140.983 55.5024C140.983 54.6847 141.194 54.0505 141.612 53.5998C142.032 53.1492 142.579 52.923 143.247 52.923C143.896 52.923 144.426 53.1443 144.839 53.5867C145.248 54.0292 145.455 54.6503 145.455 55.4532C145.455 55.5024 145.453 55.5745 145.45 55.6728H141.832C141.861 56.2071 142.013 56.6151 142.284 56.8986C142.554 57.1821 142.892 57.3247 143.298 57.3247C143.598 57.3247 143.857 57.2444 144.07 57.0871C144.283 56.9281 144.452 56.6757 144.578 56.3283L144.58 56.3267ZM141.879 54.996H144.588C144.552 54.588 144.449 54.2799 144.278 54.0767C144.016 53.7588 143.677 53.6015 143.259 53.6015C142.882 53.6015 142.562 53.7277 142.304 53.9817C142.048 54.234 141.907 54.5732 141.879 54.996Z" fill="#2B2A29"/>
<path d="M146.471 53.0328H150.301V57.8917H149.478V53.7145H147.293V57.8917H146.471V53.0328Z" fill="#2B2A29"/>
<path d="M151.941 53.0328H155.761V57.8917H154.943V53.7145H152.764V56.135C152.764 56.6987 152.746 57.0707 152.708 57.2509C152.67 57.4312 152.572 57.5885 152.406 57.7229C152.242 57.8573 152.005 57.9245 151.695 57.9245C151.503 57.9245 151.282 57.913 151.031 57.8884V57.2018H151.392C151.562 57.2018 151.685 57.1854 151.759 57.151C151.833 57.1149 151.88 57.0576 151.905 56.9822C151.929 56.9052 151.941 56.6577 151.941 56.2366V53.0345V53.0328Z" fill="#2B2A29"/>
<path d="M160.171 57.2919C159.866 57.5508 159.571 57.7344 159.289 57.8409C159.009 57.9474 158.707 58.0015 158.384 58.0015C157.852 58.0015 157.442 57.872 157.155 57.6131C156.869 57.3509 156.726 57.0166 156.726 56.6118C156.726 56.3742 156.779 56.1579 156.885 55.9629C156.996 55.7646 157.136 55.6073 157.309 55.4877C157.486 55.3697 157.685 55.2795 157.903 55.2173C158.065 55.1747 158.307 55.1337 158.634 55.0944C159.299 55.0157 159.787 54.9207 160.1 54.8109C160.104 54.6978 160.105 54.6257 160.105 54.5962C160.105 54.2602 160.028 54.0243 159.872 53.8866C159.661 53.7014 159.35 53.608 158.935 53.608C158.548 53.608 158.263 53.6769 158.076 53.8145C157.893 53.9489 157.758 54.1881 157.668 54.5323L156.865 54.4225C156.937 54.0783 157.059 53.8014 157.226 53.59C157.395 53.377 157.636 53.2131 157.953 53.1C158.27 52.9837 158.638 52.9263 159.055 52.9263C159.469 52.9263 159.805 52.9755 160.064 53.0738C160.323 53.1705 160.513 53.295 160.636 53.4442C160.757 53.59 160.843 53.7768 160.892 54.003C160.918 54.1439 160.931 54.3963 160.931 54.7617V55.8597C160.931 56.6249 160.949 57.11 160.982 57.3132C161.018 57.5148 161.088 57.7082 161.192 57.895H160.333C160.248 57.7245 160.194 57.5246 160.169 57.2952L160.171 57.2919ZM160.102 55.4533C159.804 55.5745 159.355 55.6794 158.758 55.7646C158.419 55.8138 158.181 55.8678 158.04 55.9301C157.901 55.9908 157.793 56.0809 157.716 56.2005C157.639 56.3169 157.601 56.4463 157.601 56.5889C157.601 56.8085 157.685 56.992 157.849 57.1379C158.016 57.2837 158.26 57.3575 158.579 57.3575C158.896 57.3575 159.178 57.2886 159.425 57.151C159.671 57.01 159.853 56.82 159.967 56.5791C160.056 56.3939 160.1 56.1186 160.1 55.7564V55.4549L160.102 55.4533Z" fill="#2B2A29"/>
<path d="M70.4088 2.59576C72.2343 0.865254 74.5532 0 77.3652 0C80.1773 0 82.4961 0.865254 84.3217 2.59576C86.1489 4.32791 87.0616 6.45499 87.0616 8.97864C87.0616 11.5023 86.1489 13.6294 84.3217 15.3615C82.4961 17.092 80.1773 17.9573 77.3652 17.9573C74.5532 17.9573 72.2343 17.092 70.4088 15.3615C68.5832 13.631 67.6688 11.5039 67.6688 8.97864C67.6688 6.45499 68.5816 4.32791 70.4088 2.59576ZM74.9415 6.55167C74.2942 7.19898 73.9714 8.00687 73.9714 8.97864C73.9714 9.94878 74.2942 10.7583 74.9415 11.4056C75.5872 12.0529 76.3951 12.3757 77.3652 12.3757C78.3354 12.3757 79.1433 12.0529 79.7889 11.4056C80.4346 10.7583 80.7591 9.95042 80.7591 8.97864C80.7591 8.00851 80.4362 7.19898 79.7889 6.55167C79.1416 5.90437 78.3337 5.58154 77.3652 5.58154C76.3951 5.58154 75.5872 5.90601 74.9415 6.55167Z" fill="#2B2A29"/>
<path d="M89.4952 17.4722V0.485069H103.069V5.33901H95.7961V6.79421H98.2198C100.224 6.79421 101.815 7.31205 102.995 8.34773C104.175 9.36703 104.765 10.6289 104.765 12.1332C104.765 13.6376 104.175 14.9076 102.995 15.9433C101.815 16.9626 100.224 17.4722 98.2198 17.4722H89.4935H89.4952ZM95.7978 12.6183H97.2513C97.6233 12.6183 97.915 12.5134 98.1248 12.302C98.3509 12.0922 98.464 11.8333 98.464 11.5252C98.464 11.2188 98.3509 10.9599 98.1248 10.7485C97.915 10.5387 97.6233 10.4322 97.2513 10.4322H95.7978V12.6166V12.6183Z" fill="#2B2A29"/>
<path d="M108.709 2.59576C110.535 0.865254 112.854 0 115.666 0C118.48 0 120.797 0.865254 122.624 2.59576C124.449 4.32791 125.362 6.45499 125.362 8.97864C125.362 11.5023 124.449 13.6294 122.624 15.3615C120.798 17.092 118.48 17.9573 115.666 17.9573C112.854 17.9573 110.535 17.092 108.709 15.3615C106.884 13.631 105.971 11.5039 105.971 8.97864C105.971 6.45499 106.884 4.32791 108.709 2.59576ZM113.242 6.55167C112.595 7.19898 112.274 8.00687 112.274 8.97864C112.274 9.94878 112.596 10.7583 113.242 11.4056C113.889 12.0529 114.697 12.3757 115.666 12.3757C116.636 12.3757 117.444 12.0529 118.091 11.4056C118.737 10.7583 119.06 9.95042 119.06 8.97864C119.06 8.00851 118.737 7.19898 118.091 6.55167C117.446 5.90437 116.636 5.58154 115.666 5.58154C114.697 5.58154 113.889 5.90601 113.242 6.55167Z" fill="#2B2A29"/>
<path d="M127.796 17.4722V0.485069H140.884V6.06661H134.098V17.4722H127.796Z" fill="#2B2A29"/>
<path d="M143.064 17.4722V0.485069H151.426C153.511 0.485069 155.184 1.07501 156.444 2.25654C157.704 3.43807 158.334 4.95063 158.334 6.79421C158.334 8.63943 157.704 10.1503 156.444 11.3319C155.184 12.5134 153.511 13.1033 151.426 13.1033H149.366V17.4722H143.064ZM149.366 8.25105H150.335C150.868 8.25105 151.281 8.12159 151.572 7.86267C151.879 7.58736 152.033 7.23175 152.033 6.79421C152.033 6.35831 151.879 6.00925 151.572 5.75197C151.281 5.47666 150.869 5.33901 150.335 5.33901H149.366V8.25105Z" fill="#2B2A29"/>
<path d="M160.51 17.4722V0.485069H174.449V5.33901H166.814V7.03838H172.509V10.9206H166.814V12.6183H174.69V17.4722H160.51Z" fill="#2B2A29"/>
<path d="M177.364 17.4722V0.485069H185.607C187.774 0.485069 189.404 0.881644 190.504 1.67479C191.603 2.46794 192.152 3.4856 192.152 4.73268C192.152 6.02728 191.603 7.03838 190.504 7.76598C190.035 8.07406 189.493 8.30021 188.88 8.44606V8.54274C189.656 8.68859 190.343 8.93112 190.94 9.27034C192.315 10.0635 193 11.2204 193 12.7412C193 14.1653 192.426 15.314 191.279 16.1875C190.132 17.0445 188.403 17.4739 186.092 17.4739H177.364V17.4722ZM183.667 12.8625H185.122C185.543 12.8625 185.864 12.7576 186.092 12.5462C186.333 12.32 186.456 12.0201 186.456 11.6482C186.456 11.2762 186.335 10.9845 186.092 10.7747C185.864 10.5486 185.543 10.4355 185.122 10.4355H183.667V12.8625ZM183.667 7.28091H184.393C185.202 7.28091 185.606 6.91712 185.606 6.18952C185.606 5.46192 185.201 5.09812 184.393 5.09812H183.667V7.28255V7.28091Z" fill="#2B2A29"/>
<path d="M67.6705 43.5658V37.863L67.9622 37.9351C68.1883 37.9679 68.3751 37.9843 68.5193 37.9843C69.0536 37.9843 69.4895 37.8385 69.8287 37.5468C70.1843 37.2403 70.4744 36.6405 70.7021 35.7507C70.9447 34.8609 71.0659 33.663 71.0659 32.1586V26.577H85.4885V43.5642H79.1859V32.1586H77.126C77.126 34.3758 76.9638 36.2685 76.6409 37.8368C76.3181 39.4051 75.8412 40.6358 75.2103 41.5256C74.5974 42.4155 73.8928 43.0627 73.1012 43.4659C72.3097 43.8543 71.3888 44.0493 70.3383 44.0493C69.6435 44.0493 68.9897 43.969 68.3751 43.8067C68.0523 43.7264 67.818 43.6445 67.6721 43.5642L67.6705 43.5658Z" fill="#2B2A29"/>
<path d="M88.8725 43.5658V26.5787H95.1751V32.1602H96.509C96.8794 31.0442 97.4628 30.0331 98.2543 29.1269C100.016 27.1047 102.302 26.0936 105.114 26.0936C107.715 26.0936 109.857 26.9425 111.538 28.6419C113.236 30.3248 114.083 32.4683 114.083 35.0723C114.083 37.6762 113.234 39.8279 111.538 41.5273C109.857 43.2102 107.716 44.0509 105.114 44.0509C102.14 44.0509 99.8144 42.9988 98.133 40.8963C97.3907 39.9901 96.8482 38.938 96.509 37.7418H95.1751V43.5658H88.8725ZM103.198 37.5713C103.716 38.1695 104.354 38.4694 105.114 38.4694C105.874 38.4694 106.504 38.1695 107.003 37.5713C107.521 36.9732 107.78 36.1391 107.78 35.0723C107.78 34.0038 107.521 33.1713 107.003 32.5732C106.504 31.9751 105.874 31.6752 105.114 31.6752C104.355 31.6752 103.716 31.9751 103.198 32.5732C102.697 33.1713 102.448 34.0054 102.448 35.0723C102.448 36.1407 102.697 36.9732 103.198 37.5713Z" fill="#2B2A29"/>
<path d="M116.498 43.5658V26.5803H122.801V31.9193L126.678 26.5803H133.466L128.012 33.6171L133.951 43.5658H127.042L123.891 38.1072L122.801 39.5624V43.5658H116.498Z" fill="#2B2A29"/>
<path d="M147.164 36.7716L150.922 40.6538C150.404 41.2847 149.783 41.8517 149.057 42.3532C147.375 43.4855 145.452 44.0525 143.287 44.0525C140.475 44.0525 138.154 43.1873 136.329 41.4551C134.505 39.7246 133.59 37.5976 133.59 35.0739C133.59 32.5502 134.505 30.4232 136.329 28.691C138.154 26.9605 140.475 26.0936 143.287 26.0936C145.452 26.0936 147.375 26.659 149.057 27.793C149.783 28.2944 150.405 28.8598 150.922 29.4907L147.164 33.3729C146.938 33.0976 146.623 32.8141 146.218 32.524C145.314 31.9587 144.416 31.6752 143.529 31.6752C142.446 31.6752 141.566 31.9996 140.888 32.6453C140.226 33.2762 139.893 34.0857 139.893 35.0723C139.893 36.0588 140.224 36.8765 140.888 37.5238C141.566 38.1547 142.448 38.4694 143.529 38.4694C144.516 38.4694 145.412 38.1859 146.218 37.6205C146.576 37.3944 146.889 37.1109 147.164 36.7716Z" fill="#2B2A29"/>
</svg>
