<svg width="25" height="25" viewBox="0 0 25 25" fill="none" xmlns="http://www.w3.org/2000/svg">
<path d="M19.3908 12.6711C21.1603 12.4633 22.9435 12.414 24.7267 12.3675C24.6857 15.8081 23.1377 19.1995 20.5231 21.4394C18.3679 23.3457 15.5099 24.4123 12.6382 24.4506C12.7202 22.2654 12.7175 20.0583 13.1523 17.9086C13.4477 16.418 14.219 14.9904 15.4552 14.0769C16.5765 13.1962 18.0042 12.8544 19.3908 12.6711ZM5.52997 2.19893C7.51283 0.790418 9.93875 0.0492411 12.3619 0.00274658C12.2635 2.34115 12.3072 4.72057 11.7329 7.007C11.3281 8.65892 10.2232 10.1303 8.71074 10.9207C7.25574 11.6537 5.60109 11.8205 3.99839 11.9354C2.75672 12.012 1.51504 12.0722 0.27063 12.0804C0.314389 8.19398 2.31365 4.39237 5.52724 2.19893H5.52997ZM12.6382 0.00274658C16.1335 0.0383012 19.5822 1.6492 21.8277 4.33494C23.6573 6.47915 24.6857 9.27429 24.7267 12.0913C22.6673 12.0175 20.5942 12.0093 18.5594 11.6537C17.1153 11.4021 15.6849 10.8004 14.6976 9.69001C13.6802 8.62063 13.2125 7.1629 13.0019 5.72977C12.7257 3.83444 12.7011 1.91449 12.6382 0.00274658ZM0.276101 12.3621C2.39844 12.4414 4.53992 12.4441 6.63217 12.838C8.03521 13.106 9.4109 13.7323 10.3599 14.8263C11.5059 16.0707 11.9161 17.7855 12.0939 19.421C12.2744 21.0921 12.3127 22.7741 12.3619 24.4534C8.92954 24.4096 5.53818 22.8644 3.2955 20.2579C1.38923 18.0946 0.317123 15.2393 0.273363 12.3621H0.276101Z" fill="#292D42"/>
</svg>
