<svg width="25" height="25" viewBox="0 0 25 25" fill="none" xmlns="http://www.w3.org/2000/svg">
<path d="M0 12.1094C0 6.40351 0 3.55054 1.77527 1.77527C3.55054 0 6.39933 0 12.1094 0H12.8906C18.5965 0 21.4495 0 23.2247 1.77527C25 3.55054 25 6.39933 25 12.1094V12.8906C25 18.5965 25 21.4495 23.2247 23.2247C21.4495 25 18.6007 25 12.8906 25H12.1094C6.40351 25 3.55054 25 1.77527 23.2247C0 21.4495 0 18.6007 0 12.8906V12.1094H0Z" fill="#2787F5"/>
<path fill-rule="evenodd" clip-rule="evenodd" d="M20.6183 8.50042C20.7394 8.10359 20.6183 7.8112 20.0543 7.8112H18.183C17.7068 7.8112 17.4896 8.06182 17.3685 8.34169C17.3685 8.34169 16.4161 10.66 15.0711 12.1679C14.6366 12.6023 14.4361 12.7444 14.198 12.7444C14.0811 12.7444 13.9098 12.6023 13.9098 12.2097V8.5046C13.9098 8.02841 13.772 7.81537 13.371 7.81537H10.4303C10.1337 7.81537 9.95409 8.03676 9.95409 8.24561C9.95409 8.69674 10.6308 8.79699 10.6976 10.0668V12.8195C10.6976 13.4211 10.589 13.5297 10.3509 13.5297C9.716 13.5297 8.17465 11.203 7.25568 8.53801C7.08024 8.01587 6.89645 7.8112 6.42026 7.8112H4.54891C4.01424 7.8112 3.90564 8.06182 3.90564 8.34169C3.90564 8.83876 4.54056 11.2949 6.85886 14.5447C8.40439 16.7627 10.5848 17.9657 12.5648 17.9657C13.7553 17.9657 13.9056 17.6984 13.9056 17.2389V15.5597C13.9056 15.0251 14.0142 14.9165 14.3944 14.9165C14.67 14.9165 15.1462 15.0543 16.2574 16.1236C17.5272 17.3935 17.736 17.9616 18.4503 17.9616H20.3217C20.8563 17.9616 21.1237 17.6942 20.9691 17.1679C20.802 16.6416 20.1964 15.8772 19.3902 14.9749C18.9558 14.457 18.3 13.9056 18.1036 13.6299C17.8238 13.2707 17.9031 13.1119 18.1036 12.7945C18.1036 12.7945 20.3802 9.58647 20.6224 8.49624H20.6183V8.50042Z" fill="white"/>
</svg>
