<svg width="26" height="25" viewBox="0 0 26 25" fill="none" xmlns="http://www.w3.org/2000/svg">
<path d="M0.808105 24.2695L2.89665 18.0096C1.83612 16.2273 1.22741 14.1496 1.22741 11.9268C1.22741 5.33939 6.56632 3.05176e-05 13.1542 3.05176e-05C19.7392 3.05176e-05 25.0781 5.33939 25.0781 11.9268C25.0781 18.5123 19.7392 23.8531 13.1542 23.8531C11.1495 23.8531 9.26167 23.3565 7.60469 22.4816L0.809049 24.2695H0.808105Z" fill="#2CB742"/>
<path d="M20.7606 15.8947C20.2108 14.8544 18.1798 13.6653 18.1798 13.6653C17.7199 13.4019 17.1659 13.3732 16.9044 13.841C16.9044 13.841 16.2448 14.6316 16.0771 14.746C15.3091 15.2652 14.6001 15.245 13.883 14.5274L10.5507 11.1951C9.83552 10.4799 9.81526 9.76899 10.334 9.00293C10.4489 8.83567 11.239 8.17562 11.239 8.17562C11.705 7.91225 11.6762 7.3582 11.4148 6.89837C11.4148 6.89837 10.2237 4.86779 9.18395 4.31797C8.74061 4.08288 8.19691 4.16438 7.84308 4.52056L7.10765 5.256C4.77413 7.58905 5.92228 10.2232 8.25581 12.5562L12.5224 16.8228C14.8555 19.1563 17.4914 20.3064 19.8245 17.9733L20.5604 17.2374C20.9138 16.8817 20.9957 16.3385 20.7606 15.8951V15.8947Z" fill="white"/>
</svg>
