<svg width="25" height="18" viewBox="0 0 25 18" fill="none" xmlns="http://www.w3.org/2000/svg">
<path d="M20.736 0.99579C21.0123 1.02587 21.3487 1.05322 21.6167 1.12433C22.5083 1.30484 23.2905 1.92021 23.7062 2.72429C24.0645 3.47367 24.1465 4.30237 24.2505 5.11465C24.3981 6.55325 24.4446 7.94808 24.4583 9.38941C24.4173 10.7706 24.3735 11.9767 24.2477 13.3496C24.1575 14.0635 24.0727 14.7882 23.8238 15.4665C23.5011 16.2733 22.8228 16.927 22.005 17.2196C21.6632 17.3236 21.4061 17.3536 21.0724 17.4302C18.5398 17.6928 15.9334 17.7475 13.3872 17.7912C10.8737 17.8241 8.60917 17.7475 6.21881 17.6353C5.38191 17.5943 3.26504 17.4986 2.54574 17.247C1.94952 17.0391 1.408 16.6617 1.03877 16.1475C0.620325 15.6005 0.426142 14.914 0.341358 14.2604C-0.0852973 10.8772 -0.142732 7.59527 0.352298 4.22305C0.439817 3.61589 0.587505 3.00873 0.921171 2.48635C1.28766 1.90927 1.84833 1.46073 2.49104 1.23373C3.71084 0.842632 5.77848 0.749643 7.47142 0.722293C8.38764 0.705883 9.29565 0.692209 10.1982 0.684004C13.6114 0.648449 17.3556 0.634774 20.736 1.004V0.99579ZM9.80162 5.56045L9.80435 12.8601L16.1221 9.2089L9.80162 5.56045Z" fill="#FF0000"/>
</svg>
